SplineFontDB: 3.0
FontName: Walbaum14-Italic
FullName: Walbaum 14-point Italic
FamilyName: Walbaum14
Weight: Book
Copyright: Copyright (c) 2009 Barry Schwartz\n\nPermission is hereby granted, free of charge, to any person\nobtaining a copy of this software and associated documentation\nfiles (the "Software"), to deal in the Software without\nrestriction, including without limitation the rights to use,\ncopy, modify, merge, publish, distribute, sublicense, and/or sell\ncopies of the Software, and to permit persons to whom the\nSoftware is furnished to do so, subject to the following\nconditions:\n\nThe above copyright notice and this permission notice shall be\nincluded in all copies or substantial portions of the Software.\n\nTHE SOFTWARE IS PROVIDED "AS IS", WITHOUT WARRANTY OF ANY KIND,\nEXPRESS OR IMPLIED, INCLUDING BUT NOT LIMITED TO THE WARRANTIES\nOF MERCHANTABILITY, FITNESS FOR A PARTICULAR PURPOSE AND\nNONINFRINGEMENT. IN NO EVENT SHALL THE AUTHORS OR COPYRIGHT\nHOLDERS BE LIABLE FOR ANY CLAIM, DAMAGES OR OTHER LIABILITY,\nWHETHER IN AN ACTION OF CONTRACT, TORT OR OTHERWISE, ARISING\nFROM, OUT OF OR IN CONNECTION WITH THE SOFTWARE OR THE USE OR\nOTHER DEALINGS IN THE SOFTWARE.
UComments: "2009-7-28: Created." 
Version: 001.000
ItalicAngle: -12
UnderlinePosition: -204
UnderlineWidth: 102
Ascent: 1424
Descent: 624
LayerCount: 3
Layer: 0 0 "Back"  1
Layer: 1 0 "Fore"  0
Layer: 2 0 "backup"  1
NeedsXUIDChange: 1
XUID: [1021 658 797806517 12611104]
FSType: 0
OS2Version: 0
OS2_WeightWidthSlopeOnly: 0
OS2_UseTypoMetrics: 1
CreationTime: 1248824893
ModificationTime: 1248935520
OS2TypoAscent: 0
OS2TypoAOffset: 1
OS2TypoDescent: 0
OS2TypoDOffset: 1
OS2TypoLinegap: 184
OS2WinAscent: 0
OS2WinAOffset: 1
OS2WinDescent: 0
OS2WinDOffset: 1
HheadAscent: 0
HheadAOffset: 1
HheadDescent: 0
HheadDOffset: 1
DEI: 91125
Encoding: UnicodeBmp
UnicodeInterp: none
NameList: Adobe Glyph List
DisplaySize: -72
AntiAlias: 1
FitToEm: 1
WinInfo: 88 8 6
BeginPrivate: 8

StartChar: y
Encoding: 121 121 0
Width: 1054
VWidth: 0
Flags: W
HStem: -524 36<-15.6134 111.816> 571 178<878.805 1019.22> 635 98<181.529 391>
VStem: -151 148<-472.112 -330.793> 30 42<362.151 450.286>
LayerCount: 3
Fore
SplineSet
-151 -402 m 0xb8
 -151 -358 -115 -322 -75 -322 c 0
 -31 -322 -3 -382 -3 -417 c 0
 -3 -438 -6 -454 -17 -473 c 1
 0 -485 20 -488 41 -488 c 0
 214 -488 388 -173 388 11 c 0
 388 154 333 635 218 635 c 0
 133 635 75 392 72 382 c 0
 69 374 65 362 53 362 c 0
 47 362 30 366 30 380 c 0
 30 387 102 733 290 733 c 0xb8
 492 733 487 382 516 199 c 9
 638 383 693 496 828 671 c 16
 862 715 890 749 944 749 c 0
 1012 749 1032 699 1032 663 c 0
 1032 607 986 571 953 571 c 0xd8
 911 571 895 605 856 635 c 1
 507 172 466 -26 442 -81 c 0
 295 -423 184 -524 12 -524 c 0
 -71 -524 -151 -500 -151 -402 c 0xb8
EndSplineSet
Validated: 1
EndChar

StartChar: Q
Encoding: 81 81 1
Width: 1328
VWidth: 0
Flags: W
HStem: -528 45<678.428 923> -40 48<391.294 646.815> 1250 42<677.982 912.465>
VStem: 68 179<241.367 596.663> 1083 171<648.378 1037.22>
LayerCount: 3
Fore
SplineSet
68 474 m 0
 68 784 354 1292 776 1292 c 0
 1158 1292 1254 1033 1254 793 c 0
 1254 674 1219 490 1164 388 c 0
 1013 103 791 -40 543 -40 c 0
 492 -40 445 -37 390 -32 c 9
 454 -92 496 -118 553 -185 c 0
 637 -284 598 -375 677 -465 c 16
 692 -482 712 -483 736 -483 c 2
 923 -483 l 9
 923 -528 l 17
 729 -528 l 2
 348 -528 433 -125 346 -30 c 0
 326 -7 306 10 288 24 c 0
 287 25 68 141 68 474 c 0
247 298 m 0
 247 80 343 8 490 8 c 0
 645 8 779 67 864 180 c 0
 987 343 1083 815 1083 895 c 0
 1083 1222 897 1250 794 1250 c 0
 679 1250 580 1198 499 1110 c 0
 408 1011 247 554 247 298 c 0
EndSplineSet
Validated: 1
EndChar

StartChar: O
Encoding: 79 79 2
Width: 1288
VWidth: 0
Flags: W
HStem: -27 39<478.867 720.562> 1244 29<738.164 945.638>
VStem: 134 188<230.123 592.291> 1146 162<685.156 1026.55>
LayerCount: 3
Fore
SplineSet
134 450 m 0
 134 744 415 1273 840 1273 c 0
 1180 1273 1308 1041 1308 811 c 0
 1308 281 851 -27 607 -27 c 0
 519 -27 134 22 134 450 c 0
322 293 m 0
 322 75 456 12 591 12 c 0
 746 12 819 67 904 180 c 0
 1027 343 1146 792 1146 948 c 0
 1146 1166 986 1244 850 1244 c 0
 688 1244 555 1204 406 736 c 0
 358 584 322 420 322 293 c 0
EndSplineSet
Validated: 1
EndChar

StartChar: A
Encoding: 65 65 3
Width: 1412
VWidth: 0
Flags: W
HStem: 0 45<60 180 247 480 687 882 1057 1250> 530 45<720 1022>
LayerCount: 3
Fore
SplineSet
60 0 m 25
 60 45 l 25
 180 45 l 17
 1181 1146 1279 1252 1320 1252 c 0
 1326 1252 1338 1248 1338 1235 c 0
 1338 1166 1296 993 1057 45 c 9
 1250 45 l 25
 1250 0 l 17
 687 0 l 9
 687 45 l 25
 882 45 l 25
 1022 530 l 25
 684 530 l 25
 247 45 l 25
 480 45 l 25
 480 0 l 25
 60 0 l 25
720 575 m 9
 1035 575 l 17
 1186 1088 l 1
 720 575 l 9
EndSplineSet
Validated: 1
EndChar

StartChar: x
Encoding: 120 120 4
Width: 1030
VWidth: 0
Flags: W
HStem: -36 60<177 260.423 576.903 716.583> 543 189<265 540 942.924 1046.66> 684 48<423.351 555.191>
VStem: 52 147<19.4839 160.709> 425 140<30.124 113> 923 137<545.152 676.156>
LayerCount: 3
Fore
SplineSet
52 78 m 0xdc
 52 134 88 171 138 171 c 0
 173 171 199 132 199 99 c 0
 199 52 177 19 177 19 c 1
 226 19 321 54 420 176 c 0
 454 217 571 464 571 602 c 0
 571 651 554 684 508 684 c 0xbc
 418 684 338 623 284 558 c 0
 278 551 272 543 265 543 c 0
 261 543 248 549 248 557 c 0
 248 584 372 732 540 732 c 0
 679 732 708 586 708 586 c 1
 810 697 912 731 965 731 c 0
 1014 731 1060 708 1060 624 c 0
 1060 571 1048 535 998 535 c 0
 955 535 935 576 923 677 c 1
 838 659 763 594 732 540 c 0
 647 395 565 132 565 88 c 0
 565 38 616 24 632 24 c 0
 755 24 891 160 907 160 c 0
 918 160 930 147 930 138 c 0
 930 119 745 -36 586 -36 c 0
 426 -36 425 109 425 113 c 1
 425 113 297 -26 176 -26 c 0
 114 -26 52 15 52 78 c 0xdc
EndSplineSet
Validated: 1
EndChar

StartChar: z
Encoding: 122 122 5
Width: 871
VWidth: 0
Flags: W
HStem: -26 61<463.713 719.362> 52.9932 102.007<191.56 377.994> 589 138<226.812 632>
VStem: 147 59<437.281 492> 704 146<84.4993 228.9>
LayerCount: 3
Fore
SplineSet
53.8154296875 -0.544921875 m 0
 53.8154296875 5.251953125 58.0205078125 13.0546875 70.921875 26 c 2
 632 589 l 1
 259 589 l 2
 241 589 241 587 233 564 c 2
 206 492 l 2
 193 456 188 437 174 437 c 0
 165 437 147 443 147 455 c 0
 147 465 156 482 167 514 c 2
 233 701 l 2
 241 725 250 727 264 727 c 0
 429 727 594 727 759 727 c 0
 778 727 777 725 785 707 c 0
 787 702 789 699 789 695 c 0
 789 687 780 678 752 649 c 2
 236 129 l 1
 274 136 306 155 357 155 c 0
 500 155 554 35 633 35 c 0
 722 35 754 81 754 81 c 1
 754 81 704 109 704 169 c 0
 704 203 736 237 774 237 c 0
 797 237 850 217 850 156 c 0
 850 73 751 -26 544 -26 c 0
 383.426757812 -26 337.193359375 52.9931640625 225.836914062 52.9931640625 c 0
 136.951171875 52.9931640625 103.090820312 -25.9228515625 80.1865234375 -25.9228515625 c 0
 69.439453125 -25.9228515625 53.8154296875 -8.9169921875 53.8154296875 -0.544921875 c 0
EndSplineSet
Validated: 524289
EndChar

StartChar: w
Encoding: 119 119 6
Width: 1278
VWidth: 0
Flags: W
HStem: -27 49<213.105 338.546 689.815 824.939> 682 45<41.0403 212>
VStem: 78 120<27.0806 294.734> 548 128<26.5484 213.419> 720 146<669 723.562> 1216 66<410.553 636.5>
LayerCount: 3
Fore
SplineSet
41 703 m 0
 41 723 55 727 61 727 c 2
 339 727 l 2
 354 727 360 725 360 714 c 0
 360 672 198 187 198 89 c 0
 198 49 227 22 274 22 c 0
 338 22 433 71 530 201 c 0
 567 250 597 318 626 401 c 2
 720 669 l 2
 734 710 736 724 775 724 c 2
 832 724 l 2
 854 724 866 723 866 705 c 0
 866 697 864 685 858 669 c 2
 796 489 l 2
 696 198 676 138 676 89 c 0
 676 46 697 23 750 23 c 0
 958 23 1216 275 1216 483 c 0
 1216 562 1080 576 1080 649 c 0
 1080 697 1118 722 1161 722 c 0
 1217 722 1282 680 1282 593 c 0
 1282 283 1008 -19 710 -19 c 0
 574 -19 548 50 548 104 c 0
 548 138 558 165 558 165 c 1
 558 165 408 -27 224 -27 c 0
 110 -27 78 37 78 114 c 0
 78 184 104 264 118 317 c 2
 191 599 l 2
 198 627 206 655 212 682 c 1
 61 682 l 2
 45 682 41 693 41 703 c 0
EndSplineSet
Validated: 1
Layer: 2
SplineSet
360 714 m 4
 360 672 198 187 198 89 c 4
 198 49 227 22 274 22 c 4
 338 22 433 71 530 201 c 4
 567 250 597 318 626 401 c 6
 720 669 l 6
 734 710 736 724 775 724 c 6
 832 724 l 6
 854 724 866 723 866 705 c 4
 866 697 864 685 858 669 c 6
 796 489 l 6
 696 198 676 138 676 89 c 4
 676 46 697 23 750 23 c 4
 958 23 1216 275 1216 483 c 4
 1216 562 1080 576 1080 649 c 4
 1080 697 1118 722 1161 722 c 4
 1217 722 1282 680 1282 593 c 4
 1282 283 1008 -19 710 -19 c 4
 574 -19 548 50 548 104 c 4
 548 138 558 165 558 165 c 5
 558 165 408 -27 224 -27 c 4
 110 -27 78 37 78 114 c 4
 78 184 104 264 118 317 c 6
 191 599 l 6
 198 627 206 655 212 682 c 5
 61 682 l 6
 45 682 41 693 41 703 c 4
 41 723 55 727 61 727 c 6
 339 727 l 6
 354 727 360 725 360 714 c 4
EndSplineSet
EndChar

StartChar: v
Encoding: 118 118 7
Width: 966
VWidth: 0
Flags: W
HStem: -25 48<358.743 511.455> 665 72<279.25 437>
VStem: 206 140<26.7173 247.194> 350 162<508.791 697.013> 866 81<382.375 608>
LayerCount: 3
Fore
SplineSet
77 504 m 0
 77 532.279296875 226.666992188 737 412 737 c 0
 462 737 512 720 512 666 c 0
 512 621 346 133 346 89 c 0
 346 46 367 23 420 23 c 0
 628 23 866 263 866 449 c 0
 866 570 740 556 740 650 c 0
 740 700 783 724 817 724 c 0
 885 724 947 649 947 567 c 0
 947 463 870 135 564 16 c 0
 498 -10 429 -25 369 -25 c 0
 276 -25 206 11 206 103 c 0
 206 167 350 565 350 621 c 0
 350 645 341 665 326 665 c 0
 240 665 144 555 108 507 c 0
 99 495 93 491 88 491 c 0
 85 491 77 494 77 504 c 0
EndSplineSet
Validated: 524289
EndChar

StartChar: u
Encoding: 117 117 8
Width: 1034
VWidth: 0
Flags: W
HStem: -23 56<174.319 348.168 664.327 777.907> 682 45<58.0403 231>
VStem: 95 120<36.3389 283.096> 572 144<10.5177 236.364> 747 146<554.678 723.629>
LayerCount: 3
Fore
SplineSet
58 703 m 0
 58 723 72 727 78 727 c 2
 341 727 l 2
 363 727 368 721 368 711 c 0
 368 669 215 153 215 89 c 0
 215 49 244 33 291 33 c 0
 427 33 557 186 596 255 c 0
 663 376 747 668 747 669 c 0
 759 712 763 724 802 724 c 2
 859 724 l 2
 881 724 893 723 893 705 c 0
 893 666 716 177 716 86 c 0
 716 56 724 39 742 39 c 0
 769 39 839 77 911 163 c 0
 940 198 942 210 952 210 c 0
 962 210 972 199 972 192 c 0
 972 165 830 -25 663 -25 c 0
 610 -25 572 -3 572 39 c 0
 572 85 601 149 608 201 c 1
 502 63 338 -23 224 -23 c 0
 127 -23 95 29 95 106 c 0
 95 166 115 241 135 317 c 2
 210 599 l 2
 217 627 225 655 231 682 c 1
 78 682 l 2
 62 682 58 693 58 703 c 0
EndSplineSet
Validated: 1
EndChar

StartChar: t
Encoding: 116 116 9
Width: 596
VWidth: 0
Flags: W
HStem: -15 45<148.5 296.658> 677 57<91.4039 256 406 577.346>
VStem: 78 136<30.695 254.505>
LayerCount: 3
Fore
SplineSet
78 70 m 0
 78 113 95 170 117 241 c 2
 256 682 l 1
 227 682 128 677 117 677 c 0
 97 677 91 681 91 696 c 0
 91 729 102 734 131 734 c 0
 137 734 236 727 270 727 c 1
 345 951 l 2
 354 978 370 978 400 978 c 2
 453 978 l 2
 470 978 484 977 484 963 c 0
 484 960 484 956 482 951 c 2
 406 727 l 1
 456 727 542 733 550 733 c 0
 572 733 578 728 578 715 c 0
 578 678 559 677 542 677 c 0
 534 677 449 682 392 682 c 1
 327 475 l 2
 270 292 214 131 214 73 c 0
 214 42 227 30 247 30 c 0
 297 30 399 104 498 195 c 0
 501 198 505 199 508 199 c 0
 517 199 525 190 525 180 c 0
 525 176 524 172 520 168 c 0
 434 87 322 -15 190 -15 c 0
 107 -15 78 19 78 70 c 0
EndSplineSet
Validated: 1
EndChar

StartChar: a
Encoding: 97 97 10
Width: 989
VWidth: 0
Flags: W
HStem: -25 27<234.319 345.973> 708 34<490.409 595.862>
VStem: 66 132<46.7585 321.088> 573 133<53.8814 218.511> 669 37<536 617.122>
LayerCount: 3
Fore
SplineSet
66 216 m 0xf0
 66 490 337 742 524 742 c 0
 700 742 702 545 702 536 c 1
 783 733 763 742 817 742 c 2
 859 742 l 2
 883 742 898 742 898 724 c 0
 898 685 706 226 706 100 c 0
 706 66 721 53 743 53 c 0
 835 53 933 212 942 220 c 0
 945 223 950 225 952 225 c 0
 958 225 967 220 967 211 c 0
 967 198 846 -15 648 -15 c 0
 588 -15 573 25 573 69 c 0
 573 99 580 125 584 158 c 1
 584 158 448 -25 262 -25 c 0
 110 -25 66 99 66 216 c 0xf0
198 105 m 0
 198 31 233 2 282 2 c 0
 366 2 492 88 564 186 c 8
 648 300 669 498 669 534 c 0xe8
 669 606 629 708 546 708 c 0
 386 708 198 314 198 105 c 0
EndSplineSet
Validated: 1
EndChar

StartChar: b
Encoding: 98 98 11
Width: 928
VWidth: 0
Flags: HWO
HStem: -40 39<292.008 447.458> 730 48<577.301 737.093> 1182 45<245.233 429>
VStem: 117 136<22.5288 292.678> 775 134<423.229 687.378>
LayerCount: 3
Fore
SplineSet
117 104 m 0
 117 201 429 1182 429 1182 c 1
 262 1182 l 2
 247 1182 245 1188 245 1195 c 2
 245 1199 l 2
 245 1225 258 1227 269 1227 c 2
 546 1227 l 2
 563 1227 570 1224 570 1214 c 0
 570 1206 566 1193 560 1174 c 2
 407 657 l 1
 407 657 552 778 696 778 c 0
 827 778 909 663 909 537 c 0
 909 228 615 -40 376 -40 c 0
 259 -40 117 10 117 104 c 0
253 132 m 0
 253 26 296 -1 362 -1 c 0
 566 -1 672 271 703 348 c 0
 757 482 775 560 775 611 c 0
 775 694 727 730 662 730 c 0
 578 730 466 670 393 572 c 0
 348 513 253 194 253 132 c 0
EndSplineSet
Validated: 1
EndChar

StartChar: c
Encoding: 99 99 12
Width: 632
VWidth: 0
Flags: W
HStem: 415.984 216.03<296.518 464.456>
VStem: 273.031 212.031<436.395 608.49>
LayerCount: 3
Fore
SplineSet
273.03125 518.323242188 m 0
 273.03125 586.538085938 327.009765625 632.014648438 386.662109375 632.014648438 c 0
 442.2421875 632.014648438 485.0625 581.614257812 485.0625 525.905273438 c 0
 485.0625 465.665039062 439.580078125 415.984375 379.227539062 415.984375 c 0
 322.54296875 415.984375 273.03125 461.701171875 273.03125 518.323242188 c 0
EndSplineSet
Validated: 524289
EndChar

StartChar: d
Encoding: 100 100 13
Width: 632
VWidth: 0
Flags: W
HStem: 415.984 216.03<296.518 464.456>
VStem: 273.031 212.031<436.395 608.49>
LayerCount: 3
Fore
SplineSet
273.03125 518.323242188 m 0
 273.03125 586.538085938 327.009765625 632.014648438 386.662109375 632.014648438 c 0
 442.2421875 632.014648438 485.0625 581.614257812 485.0625 525.905273438 c 0
 485.0625 465.665039062 439.580078125 415.984375 379.227539062 415.984375 c 0
 322.54296875 415.984375 273.03125 461.701171875 273.03125 518.323242188 c 0
EndSplineSet
Validated: 524289
EndChar

StartChar: e
Encoding: 101 101 14
Width: 632
VWidth: 0
Flags: W
HStem: 415.984 216.03<296.518 464.456>
VStem: 273.031 212.031<436.395 608.49>
LayerCount: 3
Fore
SplineSet
273.03125 518.323242188 m 0
 273.03125 586.538085938 327.009765625 632.014648438 386.662109375 632.014648438 c 0
 442.2421875 632.014648438 485.0625 581.614257812 485.0625 525.905273438 c 0
 485.0625 465.665039062 439.580078125 415.984375 379.227539062 415.984375 c 0
 322.54296875 415.984375 273.03125 461.701171875 273.03125 518.323242188 c 0
EndSplineSet
Validated: 524289
EndChar

StartChar: f
Encoding: 102 102 15
Width: 632
VWidth: 0
Flags: W
HStem: 415.984 216.03<296.518 464.456>
VStem: 273.031 212.031<436.395 608.49>
LayerCount: 3
Fore
SplineSet
273.03125 518.323242188 m 0
 273.03125 586.538085938 327.009765625 632.014648438 386.662109375 632.014648438 c 0
 442.2421875 632.014648438 485.0625 581.614257812 485.0625 525.905273438 c 0
 485.0625 465.665039062 439.580078125 415.984375 379.227539062 415.984375 c 0
 322.54296875 415.984375 273.03125 461.701171875 273.03125 518.323242188 c 0
EndSplineSet
Validated: 524289
EndChar

StartChar: g
Encoding: 103 103 16
Width: 632
VWidth: 0
Flags: W
HStem: 415.984 216.03<296.518 464.456>
VStem: 273.031 212.031<436.395 608.49>
LayerCount: 3
Fore
SplineSet
273.03125 518.323242188 m 0
 273.03125 586.538085938 327.009765625 632.014648438 386.662109375 632.014648438 c 0
 442.2421875 632.014648438 485.0625 581.614257812 485.0625 525.905273438 c 0
 485.0625 465.665039062 439.580078125 415.984375 379.227539062 415.984375 c 0
 322.54296875 415.984375 273.03125 461.701171875 273.03125 518.323242188 c 0
EndSplineSet
Validated: 524289
EndChar

StartChar: h
Encoding: 104 104 17
Width: 632
VWidth: 0
Flags: W
HStem: 415.984 216.03<296.518 464.456>
VStem: 273.031 212.031<436.395 608.49>
LayerCount: 3
Fore
SplineSet
273.03125 518.323242188 m 0
 273.03125 586.538085938 327.009765625 632.014648438 386.662109375 632.014648438 c 0
 442.2421875 632.014648438 485.0625 581.614257812 485.0625 525.905273438 c 0
 485.0625 465.665039062 439.580078125 415.984375 379.227539062 415.984375 c 0
 322.54296875 415.984375 273.03125 461.701171875 273.03125 518.323242188 c 0
EndSplineSet
Validated: 524289
EndChar

StartChar: i
Encoding: 105 105 18
Width: 632
VWidth: 0
Flags: W
HStem: 415.984 216.03<296.518 464.456>
VStem: 273.031 212.031<436.395 608.49>
LayerCount: 3
Fore
SplineSet
273.03125 518.323242188 m 0
 273.03125 586.538085938 327.009765625 632.014648438 386.662109375 632.014648438 c 0
 442.2421875 632.014648438 485.0625 581.614257812 485.0625 525.905273438 c 0
 485.0625 465.665039062 439.580078125 415.984375 379.227539062 415.984375 c 0
 322.54296875 415.984375 273.03125 461.701171875 273.03125 518.323242188 c 0
EndSplineSet
Validated: 524289
EndChar

StartChar: j
Encoding: 106 106 19
Width: 632
VWidth: 0
Flags: W
HStem: 415.984 216.03<296.518 464.456>
VStem: 273.031 212.031<436.395 608.49>
LayerCount: 3
Fore
SplineSet
273.03125 518.323242188 m 0
 273.03125 586.538085938 327.009765625 632.014648438 386.662109375 632.014648438 c 0
 442.2421875 632.014648438 485.0625 581.614257812 485.0625 525.905273438 c 0
 485.0625 465.665039062 439.580078125 415.984375 379.227539062 415.984375 c 0
 322.54296875 415.984375 273.03125 461.701171875 273.03125 518.323242188 c 0
EndSplineSet
Validated: 524289
EndChar

StartChar: k
Encoding: 107 107 20
Width: 632
VWidth: 0
Flags: W
HStem: 415.984 216.03<296.518 464.456>
VStem: 273.031 212.031<436.395 608.49>
LayerCount: 3
Fore
SplineSet
273.03125 518.323242188 m 0
 273.03125 586.538085938 327.009765625 632.014648438 386.662109375 632.014648438 c 0
 442.2421875 632.014648438 485.0625 581.614257812 485.0625 525.905273438 c 0
 485.0625 465.665039062 439.580078125 415.984375 379.227539062 415.984375 c 0
 322.54296875 415.984375 273.03125 461.701171875 273.03125 518.323242188 c 0
EndSplineSet
Validated: 524289
EndChar

StartChar: l
Encoding: 108 108 21
Width: 632
VWidth: 0
Flags: W
HStem: 415.984 216.03<296.518 464.456>
VStem: 273.031 212.031<436.395 608.49>
LayerCount: 3
Fore
SplineSet
273.03125 518.323242188 m 0
 273.03125 586.538085938 327.009765625 632.014648438 386.662109375 632.014648438 c 0
 442.2421875 632.014648438 485.0625 581.614257812 485.0625 525.905273438 c 0
 485.0625 465.665039062 439.580078125 415.984375 379.227539062 415.984375 c 0
 322.54296875 415.984375 273.03125 461.701171875 273.03125 518.323242188 c 0
EndSplineSet
Validated: 524289
EndChar

StartChar: m
Encoding: 109 109 22
Width: 632
VWidth: 0
Flags: W
HStem: 415.984 216.03<296.518 464.456>
VStem: 273.031 212.031<436.395 608.49>
LayerCount: 3
Fore
SplineSet
273.03125 518.323242188 m 0
 273.03125 586.538085938 327.009765625 632.014648438 386.662109375 632.014648438 c 0
 442.2421875 632.014648438 485.0625 581.614257812 485.0625 525.905273438 c 0
 485.0625 465.665039062 439.580078125 415.984375 379.227539062 415.984375 c 0
 322.54296875 415.984375 273.03125 461.701171875 273.03125 518.323242188 c 0
EndSplineSet
Validated: 524289
EndChar

StartChar: n
Encoding: 110 110 23
Width: 632
VWidth: 0
Flags: W
HStem: 415.984 216.03<296.518 464.456>
VStem: 273.031 212.031<436.395 608.49>
LayerCount: 3
Fore
SplineSet
273.03125 518.323242188 m 0
 273.03125 586.538085938 327.009765625 632.014648438 386.662109375 632.014648438 c 0
 442.2421875 632.014648438 485.0625 581.614257812 485.0625 525.905273438 c 0
 485.0625 465.665039062 439.580078125 415.984375 379.227539062 415.984375 c 0
 322.54296875 415.984375 273.03125 461.701171875 273.03125 518.323242188 c 0
EndSplineSet
Validated: 524289
EndChar

StartChar: o
Encoding: 111 111 24
Width: 632
VWidth: 0
Flags: W
HStem: 415.984 216.03<296.518 464.456>
VStem: 273.031 212.031<436.395 608.49>
LayerCount: 3
Fore
SplineSet
273.03125 518.323242188 m 0
 273.03125 586.538085938 327.009765625 632.014648438 386.662109375 632.014648438 c 0
 442.2421875 632.014648438 485.0625 581.614257812 485.0625 525.905273438 c 0
 485.0625 465.665039062 439.580078125 415.984375 379.227539062 415.984375 c 0
 322.54296875 415.984375 273.03125 461.701171875 273.03125 518.323242188 c 0
EndSplineSet
Validated: 524289
EndChar

StartChar: p
Encoding: 112 112 25
Width: 632
VWidth: 0
Flags: W
HStem: 415.984 216.03<296.518 464.456>
VStem: 273.031 212.031<436.395 608.49>
LayerCount: 3
Fore
SplineSet
273.03125 518.323242188 m 0
 273.03125 586.538085938 327.009765625 632.014648438 386.662109375 632.014648438 c 0
 442.2421875 632.014648438 485.0625 581.614257812 485.0625 525.905273438 c 0
 485.0625 465.665039062 439.580078125 415.984375 379.227539062 415.984375 c 0
 322.54296875 415.984375 273.03125 461.701171875 273.03125 518.323242188 c 0
EndSplineSet
Validated: 524289
EndChar

StartChar: q
Encoding: 113 113 26
Width: 632
VWidth: 0
Flags: W
HStem: 415.984 216.03<296.518 464.456>
VStem: 273.031 212.031<436.395 608.49>
LayerCount: 3
Fore
SplineSet
273.03125 518.323242188 m 0
 273.03125 586.538085938 327.009765625 632.014648438 386.662109375 632.014648438 c 0
 442.2421875 632.014648438 485.0625 581.614257812 485.0625 525.905273438 c 0
 485.0625 465.665039062 439.580078125 415.984375 379.227539062 415.984375 c 0
 322.54296875 415.984375 273.03125 461.701171875 273.03125 518.323242188 c 0
EndSplineSet
Validated: 524289
EndChar

StartChar: r
Encoding: 114 114 27
Width: 789
VWidth: 0
Flags: W
HStem: -0 21G<88 180> 527 202<643.408 761.879> 682 45<86.0159 289>
VStem: 629 150<540.977 662.977>
LayerCount: 3
Fore
SplineSet
59 21 m 0xd0
 59 30 64 43 70 61 c 2
 289 682 l 1
 108 682 l 2
 88 682 86 692 86 703 c 0
 86 718 88 727 118 727 c 2
 417 727 l 2xb0
 442 727 442 723 442 717 c 0
 442 710 426 674 379 538 c 1
 430 596 599 729 701 729 c 0
 751 729 779 696 779 642 c 0
 779 567 736 527 693 527 c 0
 659 527 629 552 629 602 c 0
 629 632 640 663 640 663 c 1
 628 655 405 572 306 326 c 0
 178 7 218 0 142 0 c 2
 106 -0 l 2
 70 0 59 0 59 21 c 0xd0
EndSplineSet
Validated: 1
EndChar

StartChar: s
Encoding: 115 115 28
Width: 651
VWidth: 0
Flags: W
HStem: -32 52<207.756 373.487> 702 47<322.151 463.392>
VStem: 33 155<52.8738 233.719> 191 94<433 647.827> 438 121<93.0707 236.149>
LayerCount: 3
Fore
SplineSet
33 160 m 0
 33 209 72 242 111 242 c 0
 142 242 188 225 188 116 c 0
 188 77 192 20 283 20 c 0
 354 20 438 68 438 139 c 0
 438 277 191 349 191 517 c 0
 191 581 249 749 420 749 c 0
 523 749 621 692 621 604 c 0
 621 571 604 544 577 544 c 0
 474 544 529 702 398 702 c 0
 343 702 285 671 285 623 c 0
 285 533 559 403 559 226 c 0
 559 109 447 -32 274 -32 c 0
 122 -32 33 72 33 160 c 0
EndSplineSet
Validated: 1
EndChar

